<svg id="Laag_1" data-name="Laag 1" xmlns="http://www.w3.org/2000/svg" viewBox="0 0 191.5 63.83"><defs><style>.cls-1{fill:#4c9ec8;}.cls-2{fill:#d44510;}.cls-3{fill:#80c41c;}</style></defs><title>Tekengebied 13</title><path class="cls-1" d="M33.79,19.33C31.24,16,21.85,15,20.91,22.68c2.51-4.71,11.2-1.54,7.76,7.67-2.58,6.9-4.74,18.53-5,27.71,4.37-16.44,11-37.73,31.73-47.89C47.32,9.73,38.22,13.62,33.79,19.33Z"/><path class="cls-2" d="M45.28,10.25a2.16,2.16,0,0,1-2.82-1.84c0-1.41,1-2.49,2.79-2.63C47.62,5.61,49.87,6.91,52,9.2A36.21,36.21,0,0,0,45.28,10.25Z"/><path class="cls-3" d="M20.32,24.79c-.68-5.48,2.28-8.14,5.89-8.76,2.91-.5,6.36.67,7.63,2.08,1.18-6-5.73-9.51-11.14-5.59C19.43,14.88,17.62,19.53,20.32,24.79Z"/><path class="cls-1" d="M44.37,37.09q0-8.14,2.27-12.25a7.57,7.57,0,0,1,13.49,0q2.28,4.17,2.28,12.21T60.15,49.35a7.24,7.24,0,0,1-6.71,4.15,7.32,7.32,0,0,1-6.8-4.12Q44.37,45.26,44.37,37.09Zm9-13q-2.61,0-3.81,3.09t-1.21,9.94q0,6.88,1.21,10t3.81,3.12q2.54,0,3.78-3.2t1.24-9.83q0-6.66-1.24-9.89T53.38,24.07Z"/><path class="cls-1" d="M67.94,37.09q0-8.14,2.27-12.25a7.57,7.57,0,0,1,13.49,0Q86,29.05,86,37.09T83.72,49.35A7.24,7.24,0,0,1,77,53.5a7.32,7.32,0,0,1-6.8-4.12Q67.95,45.26,67.94,37.09Zm9-13q-2.61,0-3.81,3.09t-1.21,9.94q0,6.88,1.21,10T77,50.22q2.54,0,3.78-3.2T82,37.19q0-6.66-1.24-9.89T77,24.07Z"/><path class="cls-1" d="M91.85,46.71a10.89,10.89,0,0,0,2.93,2.48,6.24,6.24,0,0,0,3.06.84,4.76,4.76,0,0,0,5-5q0-2.67-4.82-6.79a5.88,5.88,0,0,1-.45-.39,24.08,24.08,0,0,1-5-5.16,8.12,8.12,0,0,1-1.13-4.2A7.44,7.44,0,0,1,93.62,23a7.61,7.61,0,0,1,5.6-2.17,10.28,10.28,0,0,1,2.85.4,11,11,0,0,1,2.75,1.24v4a8.92,8.92,0,0,0-2.54-1.77,6.44,6.44,0,0,0-2.67-.61,4.45,4.45,0,0,0-3.18,1.22,4,4,0,0,0-1.29,3.06q0,2.57,4.47,6.31l.26.22a26.19,26.19,0,0,1,5.44,5.55A8.64,8.64,0,0,1,106.52,45a8.53,8.53,0,0,1-2.38,6.21,8.08,8.08,0,0,1-6,2.44A9.4,9.4,0,0,1,94.76,53a9.76,9.76,0,0,1-2.91-1.7Z"/><path class="cls-1" d="M114.17,24.58h-3.28V21.36h3.28V12.55h3.89v8.81h5.21v3.22h-5.21V52.92h-3.89Z"/><path class="cls-1" d="M144.66,38.09H130.9v1.06a19.6,19.6,0,0,0,1.35,8.12q1.35,2.88,3.73,2.88a3.66,3.66,0,0,0,3.2-2.07,11.55,11.55,0,0,0,1.33-5.61h3.76a14.1,14.1,0,0,1-2.48,8.07,7.39,7.39,0,0,1-12.5-1.08q-2.2-4-2.2-12.08t2.38-12.26q2.38-4.34,6.63-4.34a6.88,6.88,0,0,1,6.4,4.1Q144.66,29,144.66,37ZM141,34.87a19.91,19.91,0,0,0-1.27-7.78q-1.24-2.77-3.46-2.77t-3.75,2.73a19.17,19.17,0,0,0-1.59,7.82Z"/><path class="cls-1" d="M151.25,21.36h3.89v4.28a7.59,7.59,0,0,1,2.17-3.38c2-1.48,4.52-1.48,6.41-1.48V25a7.59,7.59,0,0,0-7.44,2.22c-1,1.07-1.14,3.53-1.14,6.85V52.92h-3.89Z"/><rect class="cls-1" x="153.66" y="48.04" width="3.86" height="5.9" transform="translate(104.59 206.57) rotate(-90)"/></svg>