<svg id="Laag_1" data-name="Laag 1" xmlns="http://www.w3.org/2000/svg" viewBox="0 0 63.83 63.83"><defs></defs><title>Tekengebied 13</title><path class="cls-1" d="M33.79,19.33C31.24,16,21.85,15,20.91,22.68c2.51-4.71,11.2-1.54,7.76,7.67-2.58,6.9-4.74,18.53-5,27.71,4.37-16.44,11-37.73,31.73-47.89C47.32,9.73,38.22,13.62,33.79,19.33Z"/><path class="cls-2" d="M45.28,10.25a2.16,2.16,0,0,1-2.82-1.84c0-1.41,1-2.49,2.79-2.63C47.62,5.61,49.87,6.91,52,9.2A36.21,36.21,0,0,0,45.28,10.25Z"/><path class="cls-3" d="M20.32,24.79c-.68-5.48,2.28-8.14,5.89-8.76,2.91-.5,6.36.67,7.63,2.08,1.18-6-5.73-9.51-11.14-5.59C19.43,14.88,17.62,19.53,20.32,24.79Z"/></svg>
